<?xml version="1.0" standalone="no"?>
<!DOCTYPE svg PUBLIC "-//W3C//DTD SVG 20010904//EN"
 "http://www.w3.org/TR/2001/REC-SVG-20010904/DTD/svg10.dtd">
<svg version="1.0" xmlns="http://www.w3.org/2000/svg"
 width="1920.000000pt" height="1920.000000pt" viewBox="0 0 1920.000000 1920.000000"
 preserveAspectRatio="xMidYMid meet">
<metadata>
Created by potrace 1.14, written by Peter Selinger 2001-2017
</metadata>
<g transform="translate(0.000000,1920.000000) scale(0.100000,-0.100000)"
fill="#000000" stroke="none">
<path d="M5280 15776 c-1455 -673 -2652 -1230 -2661 -1237 -16 -13 2 -318 234
-3971 139 -2177 255 -3958 258 -3958 5 0 4801 10311 4824 10373 4 9 3 17 -1
17 -5 -1 -1199 -551 -2654 -1224z"/>
<path d="M11260 16995 c0 -3 770 -1663 1711 -3688 940 -2025 2026 -4363 2412
-5194 386 -832 704 -1513 707 -1513 3 0 118 1783 256 3963 185 2919 248 3965
240 3973 -10 11 -5308 2464 -5321 2464 -3 0 -5 -2 -5 -5z"/>
<path d="M8645 10748 c-522 -1271 -951 -2319 -953 -2330 -3 -17 57 -18 1908
-18 1851 0 1911 1 1908 18 -4 26 -1902 4641 -1908 4641 -3 0 -432 -1040 -955
-2311z"/>
<path d="M6681 6058 c-5 -13 -161 -390 -346 -838 -405 -977 -389 -939 -384
-944 2 -2 225 -130 494 -283 270 -154 1087 -620 1817 -1036 729 -417 1332
-757 1338 -757 6 0 830 467 1831 1037 1599 912 1819 1040 1815 1058 -3 11
-169 416 -370 900 l-364 880 -2911 3 -2911 2 -9 -22z"/>
</g>
</svg>
